<svg xmlns="http://www.w3.org/2000/svg" viewBox="0 0 900 550">
  <defs>
    <linearGradient id="dsGrad" x1="0%" y1="0%" x2="100%" y2="100%">
      <stop offset="0%" style="stop-color:#667eea;stop-opacity:1" />
      <stop offset="100%" style="stop-color:#764ba2;stop-opacity:1" />
    </linearGradient>
    <linearGradient id="gptGrad" x1="0%" y1="0%" x2="100%" y2="100%">
      <stop offset="0%" style="stop-color:#48bb78;stop-opacity:1" />
      <stop offset="100%" style="stop-color:#38a169;stop-opacity:1" />
    </linearGradient>
    <linearGradient id="claudeGrad" x1="0%" y1="0%" x2="100%" y2="100%">
      <stop offset="0%" style="stop-color:#ed8936;stop-opacity:1" />
      <stop offset="100%" style="stop-color:#dd6b20;stop-opacity:1" />
    </linearGradient>
    <linearGradient id="llamaGrad" x1="0%" y1="0%" x2="100%" y2="100%">
      <stop offset="0%" style="stop-color:#4299e1;stop-opacity:1" />
      <stop offset="100%" style="stop-color:#3182ce;stop-opacity:1" />
    </linearGradient>
    <filter id="shadowBench" x="-20%" y="-20%" width="140%" height="140%">
      <feDropShadow dx="2" dy="2" stdDeviation="2" flood-opacity="0.15"/>
    </filter>
  </defs>
  
  <!-- Background -->
  <rect width="900" height="550" fill="#f7fafc"/>
  
  <!-- Title -->
  <text x="450" y="35" font-family="Arial, sans-serif" font-size="22" font-weight="bold" fill="#2d3748" text-anchor="middle">DeepSeek-V3 性能对比</text>
  <text x="450" y="58" font-family="Arial, sans-serif" font-size="13" fill="#718096" text-anchor="middle">开源最强，可与闭源顶级模型正面交锋</text>
  
  <!-- Legend -->
  <rect x="200" y="75" width="15" height="15" rx="3" fill="url(#dsGrad)"/>
  <text x="220" y="87" font-family="Arial, sans-serif" font-size="11" fill="#4a5568">DeepSeek-V3</text>
  
  <rect x="340" y="75" width="15" height="15" rx="3" fill="url(#gptGrad)"/>
  <text x="360" y="87" font-family="Arial, sans-serif" font-size="11" fill="#4a5568">GPT-4o</text>
  
  <rect x="440" y="75" width="15" height="15" rx="3" fill="url(#claudeGrad)"/>
  <text x="460" y="87" font-family="Arial, sans-serif" font-size="11" fill="#4a5568">Claude-3.5-Sonnet</text>
  
  <rect x="600" y="75" width="15" height="15" rx="3" fill="url(#llamaGrad)"/>
  <text x="620" y="87" font-family="Arial, sans-serif" font-size="11" fill="#4a5568">Llama-3.1-405B</text>
  
  <!-- Chart area -->
  <rect x="50" y="100" width="800" height="350" rx="10" fill="white" stroke="#e2e8f0" stroke-width="2" filter="url(#shadowBench)"/>
  
  <!-- Y axis labels -->
  <text x="45" y="140" font-family="Arial, sans-serif" font-size="10" fill="#718096" text-anchor="end">100%</text>
  <text x="45" y="200" font-family="Arial, sans-serif" font-size="10" fill="#718096" text-anchor="end">80%</text>
  <text x="45" y="260" font-family="Arial, sans-serif" font-size="10" fill="#718096" text-anchor="end">60%</text>
  <text x="45" y="320" font-family="Arial, sans-serif" font-size="10" fill="#718096" text-anchor="end">40%</text>
  <text x="45" y="380" font-family="Arial, sans-serif" font-size="10" fill="#718096" text-anchor="end">20%</text>
  <text x="45" y="440" font-family="Arial, sans-serif" font-size="10" fill="#718096" text-anchor="end">0%</text>
  
  <!-- Grid lines -->
  <path d="M55 135 L840 135" stroke="#edf2f7" stroke-width="1"/>
  <path d="M55 195 L840 195" stroke="#edf2f7" stroke-width="1"/>
  <path d="M55 255 L840 255" stroke="#edf2f7" stroke-width="1"/>
  <path d="M55 315 L840 315" stroke="#edf2f7" stroke-width="1"/>
  <path d="M55 375 L840 375" stroke="#edf2f7" stroke-width="1"/>
  <path d="M55 435 L840 435" stroke="#edf2f7" stroke-width="1"/>
  
  <!-- Benchmark 1: MMLU -->
  <text x="120" y="455" font-family="Arial, sans-serif" font-size="11" fill="#4a5568" text-anchor="middle">MMLU</text>
  <!-- DS-V3: 88.5% -->
  <rect x="80" y="170" width="20" height="265" rx="3" fill="url(#dsGrad)"/>
  <text x="90" y="165" font-family="Arial, sans-serif" font-size="9" fill="#667eea" text-anchor="middle" font-weight="bold">88.5</text>
  <!-- GPT-4o: 87.2% -->
  <rect x="105" y="178" width="20" height="257" rx="3" fill="url(#gptGrad)"/>
  <text x="115" y="173" font-family="Arial, sans-serif" font-size="9" fill="#48bb78" text-anchor="middle">87.2</text>
  <!-- Claude: 88.3% -->
  <rect x="130" y="172" width="20" height="263" rx="3" fill="url(#claudeGrad)"/>
  <text x="140" y="167" font-family="Arial, sans-serif" font-size="9" fill="#ed8936" text-anchor="middle">88.3</text>
  <!-- Llama: 88.6% -->
  <rect x="155" y="169" width="20" height="266" rx="3" fill="url(#llamaGrad)"/>
  <text x="165" y="164" font-family="Arial, sans-serif" font-size="9" fill="#4299e1" text-anchor="middle">88.6</text>
  
  <!-- Benchmark 2: MATH-500 -->
  <text x="260" y="455" font-family="Arial, sans-serif" font-size="11" fill="#4a5568" text-anchor="middle">MATH-500</text>
  <!-- DS-V3: 90.2% -->
  <rect x="220" y="163" width="20" height="272" rx="3" fill="url(#dsGrad)"/>
  <text x="230" y="158" font-family="Arial, sans-serif" font-size="9" fill="#667eea" text-anchor="middle" font-weight="bold">90.2</text>
  <text x="230" y="148" font-family="Arial, sans-serif" font-size="10" fill="#38a169" text-anchor="middle">★</text>
  <!-- GPT-4o: 76.6% -->
  <rect x="245" y="206" width="20" height="229" rx="3" fill="url(#gptGrad)"/>
  <text x="255" y="201" font-family="Arial, sans-serif" font-size="9" fill="#48bb78" text-anchor="middle">76.6</text>
  <!-- Claude: 78.3% -->
  <rect x="270" y="201" width="20" height="234" rx="3" fill="url(#claudeGrad)"/>
  <text x="280" y="196" font-family="Arial, sans-serif" font-size="9" fill="#ed8936" text-anchor="middle">78.3</text>
  <!-- Llama: 73.8% -->
  <rect x="295" y="215" width="20" height="220" rx="3" fill="url(#llamaGrad)"/>
  <text x="305" y="210" font-family="Arial, sans-serif" font-size="9" fill="#4299e1" text-anchor="middle">73.8</text>
  
  <!-- Benchmark 3: GPQA -->
  <text x="400" y="455" font-family="Arial, sans-serif" font-size="11" fill="#4a5568" text-anchor="middle">GPQA-Diamond</text>
  <!-- DS-V3: 59.1% -->
  <rect x="360" y="258" width="20" height="177" rx="3" fill="url(#dsGrad)"/>
  <text x="370" y="253" font-family="Arial, sans-serif" font-size="9" fill="#667eea" text-anchor="middle" font-weight="bold">59.1</text>
  <!-- GPT-4o: 49.9% -->
  <rect x="385" y="286" width="20" height="149" rx="3" fill="url(#gptGrad)"/>
  <text x="395" y="281" font-family="Arial, sans-serif" font-size="9" fill="#48bb78" text-anchor="middle">49.9</text>
  <!-- Claude: 65.0% -->
  <rect x="410" y="241" width="20" height="194" rx="3" fill="url(#claudeGrad)"/>
  <text x="420" y="236" font-family="Arial, sans-serif" font-size="9" fill="#ed8936" text-anchor="middle">65.0</text>
  <!-- Llama: 51.1% -->
  <rect x="435" y="282" width="20" height="153" rx="3" fill="url(#llamaGrad)"/>
  <text x="445" y="277" font-family="Arial, sans-serif" font-size="9" fill="#4299e1" text-anchor="middle">51.1</text>
  
  <!-- Benchmark 4: HumanEval -->
  <text x="540" y="455" font-family="Arial, sans-serif" font-size="11" fill="#4a5568" text-anchor="middle">HumanEval</text>
  <!-- DS-V3: 82.6% -->
  <rect x="500" y="188" width="20" height="247" rx="3" fill="url(#dsGrad)"/>
  <text x="510" y="183" font-family="Arial, sans-serif" font-size="9" fill="#667eea" text-anchor="middle" font-weight="bold">82.6</text>
  <!-- GPT-4o: 90.2% -->
  <rect x="525" y="165" width="20" height="270" rx="3" fill="url(#gptGrad)"/>
  <text x="535" y="160" font-family="Arial, sans-serif" font-size="9" fill="#48bb78" text-anchor="middle">90.2</text>
  <!-- Claude: 92.0% -->
  <rect x="550" y="160" width="20" height="275" rx="3" fill="url(#claudeGrad)"/>
  <text x="560" y="155" font-family="Arial, sans-serif" font-size="9" fill="#ed8936" text-anchor="middle">92.0</text>
  <!-- Llama: 89.0% -->
  <rect x="575" y="168" width="20" height="267" rx="3" fill="url(#llamaGrad)"/>
  <text x="585" y="163" font-family="Arial, sans-serif" font-size="9" fill="#4299e1" text-anchor="middle">89.0</text>
  
  <!-- Benchmark 5: LiveCodeBench -->
  <text x="680" y="455" font-family="Arial, sans-serif" font-size="11" fill="#4a5568" text-anchor="middle">LiveCodeBench</text>
  <!-- DS-V3: 40.5% -->
  <rect x="640" y="314" width="20" height="121" rx="3" fill="url(#dsGrad)"/>
  <text x="650" y="309" font-family="Arial, sans-serif" font-size="9" fill="#667eea" text-anchor="middle" font-weight="bold">40.5</text>
  <text x="650" y="299" font-family="Arial, sans-serif" font-size="10" fill="#38a169" text-anchor="middle">★</text>
  <!-- GPT-4o: 33.4% -->
  <rect x="665" y="335" width="20" height="100" rx="3" fill="url(#gptGrad)"/>
  <text x="675" y="330" font-family="Arial, sans-serif" font-size="9" fill="#48bb78" text-anchor="middle">33.4</text>
  <!-- Claude: 38.9% -->
  <rect x="690" y="319" width="20" height="116" rx="3" fill="url(#claudeGrad)"/>
  <text x="700" y="314" font-family="Arial, sans-serif" font-size="9" fill="#ed8936" text-anchor="middle">38.9</text>
  <!-- Llama: 29.8% -->
  <rect x="715" y="346" width="20" height="89" rx="3" fill="url(#llamaGrad)"/>
  <text x="725" y="341" font-family="Arial, sans-serif" font-size="9" fill="#4299e1" text-anchor="middle">29.8</text>
  
  <!-- Benchmark 6: C-Eval -->
  <text x="800" y="455" font-family="Arial, sans-serif" font-size="11" fill="#4a5568" text-anchor="middle">C-Eval (中文)</text>
  <!-- DS-V3: 90.1% -->
  <rect x="765" y="165" width="20" height="270" rx="3" fill="url(#dsGrad)"/>
  <text x="775" y="160" font-family="Arial, sans-serif" font-size="9" fill="#667eea" text-anchor="middle" font-weight="bold">90.1</text>
  <text x="775" y="150" font-family="Arial, sans-serif" font-size="10" fill="#38a169" text-anchor="middle">★</text>
  <!-- GPT-4o: 87.1% -->
  <rect x="790" y="175" width="20" height="260" rx="3" fill="url(#gptGrad)"/>
  <text x="800" y="170" font-family="Arial, sans-serif" font-size="9" fill="#48bb78" text-anchor="middle">87.1</text>
  <!-- Claude: 76.7% -->
  <rect x="815" y="206" width="20" height="229" rx="3" fill="url(#claudeGrad)"/>
  <text x="825" y="201" font-family="Arial, sans-serif" font-size="9" fill="#ed8936" text-anchor="middle">76.7</text>
  
  <!-- Key highlights -->
  <rect x="50" y="470" width="260" height="65" rx="8" fill="#c6f6d5"/>
  <text x="180" y="495" font-family="Arial, sans-serif" font-size="12" fill="#276749" text-anchor="middle" font-weight="bold">数学能力突出</text>
  <text x="180" y="515" font-family="Arial, sans-serif" font-size="11" fill="#276749" text-anchor="middle">MATH-500 超越 o1-preview</text>
  
  <rect x="330" y="470" width="240" height="65" rx="8" fill="#bee3f8"/>
  <text x="450" y="495" font-family="Arial, sans-serif" font-size="12" fill="#2b6cb0" text-anchor="middle" font-weight="bold">代码竞赛第一</text>
  <text x="450" y="515" font-family="Arial, sans-serif" font-size="11" fill="#2b6cb0" text-anchor="middle">LiveCodeBench 开源最强</text>
  
  <rect x="590" y="470" width="260" height="65" rx="8" fill="#fef3c7"/>
  <text x="720" y="495" font-family="Arial, sans-serif" font-size="12" fill="#744210" text-anchor="middle" font-weight="bold">中文理解最强</text>
  <text x="720" y="515" font-family="Arial, sans-serif" font-size="11" fill="#744210" text-anchor="middle">C-Eval、Chinese SimpleQA 领先</text>
</svg>